<svg width="190" height="60" viewBox="0 0 190 60" fill="none" xmlns="http://www.w3.org/2000/svg">
<rect width="190" height="60" rx="5" fill="white"/>
<path d="M73.9063 15.1983C76.0646 15.1983 77.3395 16.5467 77.3395 18.8397C77.3395 21.138 76.0687 22.4864 73.9063 22.4864H71.4609V15.1973H73.9063V15.1983ZM72.3693 21.6683H73.8468C75.4955 21.6683 76.4133 20.6578 76.4133 18.8502C76.4133 17.0269 75.5007 16.0163 73.8468 16.0163H72.3693V21.6683Z" fill="#333333"/>
<path d="M78.5879 19.8603C78.5879 18.1834 79.5663 17.1426 81.0176 17.1426C82.4648 17.1426 83.4432 18.1834 83.4432 19.8603C83.4432 21.5319 82.4648 22.578 81.0176 22.578C79.5663 22.578 78.5879 21.5319 78.5879 19.8603ZM82.5515 19.8603C82.5515 18.6228 81.9469 17.9156 81.0187 17.9156C80.0904 17.9156 79.4806 18.6228 79.4806 19.8603C79.4806 21.0978 80.0904 21.805 81.0187 21.805C81.9459 21.805 82.5515 21.0978 82.5515 19.8603Z" fill="#333333"/>
<path d="M90.0494 22.4878H89.1567L87.9716 18.4217H87.9518L86.7719 22.4878H85.8791L84.4121 17.2344H85.284L86.3323 21.5076H86.3521L87.5372 17.2344H88.384L89.5744 21.5076H89.5942L90.6425 17.2344H91.5102L90.0494 22.4878Z" fill="#333333"/>
<path d="M92.7432 17.2345H93.5702V18.0735H93.59C93.8824 17.5075 94.4421 17.1445 95.2534 17.1445C96.403 17.1445 97.0681 17.8873 97.0681 19.0787V22.4879H96.191V19.2346C96.191 18.3862 95.7921 17.9218 94.986 17.9218C94.1591 17.9218 93.6193 18.5076 93.6193 19.3967V22.4879H92.7422V17.2345H92.7432Z" fill="#333333"/>
<path d="M98.7461 15.1992H99.6232V22.4883H98.7461V15.1992Z" fill="#333333"/>
<path d="M101.066 19.8603C101.066 18.1834 102.045 17.1426 103.496 17.1426C104.943 17.1426 105.922 18.1834 105.922 19.8603C105.922 21.5319 104.943 22.578 103.496 22.578C102.044 22.578 101.066 21.5319 101.066 19.8603ZM105.029 19.8603C105.029 18.6228 104.424 17.9156 103.496 17.9156C102.568 17.9156 101.958 18.6228 101.958 19.8603C101.958 21.0978 102.568 21.805 103.496 21.805C104.424 21.805 105.029 21.0978 105.029 19.8603Z" fill="#333333"/>
<path d="M107.109 21.0016C107.109 20.1019 107.801 19.5371 109.01 19.4659L110.512 19.3801V18.9408C110.512 18.2995 110.088 17.9156 109.363 17.9156C108.687 17.9156 108.263 18.2336 108.152 18.7494H107.306C107.366 17.8403 108.143 17.1426 109.382 17.1426C110.612 17.1426 111.389 17.8089 111.389 18.855V22.487H110.557V21.5832H110.537C110.225 22.1847 109.559 22.578 108.853 22.578C107.81 22.578 107.109 21.9462 107.109 21.0016ZM110.513 20.4911V20.0622L109.112 20.148C108.406 20.1929 108.003 20.5068 108.003 21.0016C108.003 21.5016 108.422 21.8301 109.051 21.8301C109.877 21.8301 110.513 21.2495 110.513 20.4911Z" fill="#333333"/>
<path d="M112.762 19.8616C112.762 18.2151 113.664 17.1439 114.985 17.1439C115.735 17.1439 116.341 17.5121 116.653 18.0885H116.673V15.1992H117.55V22.4883H116.713V21.5991H116.698C116.36 22.2048 115.76 22.5793 115.005 22.5793C113.669 22.5793 112.762 21.5081 112.762 19.8616ZM113.659 19.8616C113.659 21.0541 114.243 21.8063 115.172 21.8063C116.074 21.8063 116.679 21.0384 116.679 19.8616C116.679 18.69 116.075 17.9169 115.172 17.9169C114.244 17.9169 113.659 18.6743 113.659 19.8616Z" fill="#333333"/>
<path d="M121.629 19.8603C121.629 18.1834 122.607 17.1426 124.059 17.1426C125.506 17.1426 126.484 18.1834 126.484 19.8603C126.484 21.5319 125.506 22.578 124.059 22.578C122.607 22.578 121.629 21.5319 121.629 19.8603ZM125.592 19.8603C125.592 18.6228 124.988 17.9156 124.06 17.9156C123.131 17.9156 122.522 18.6228 122.522 19.8603C122.522 21.0978 123.131 21.805 124.06 21.805C124.988 21.805 125.592 21.0978 125.592 19.8603Z" fill="#333333"/>
<path d="M127.884 17.2345H128.711V18.0735H128.731C129.023 17.5075 129.583 17.1445 130.394 17.1445C131.544 17.1445 132.209 17.8873 132.209 19.0787V22.4879H131.332V19.2346C131.332 18.3862 130.934 17.9218 130.127 17.9218C129.3 17.9218 128.76 18.5076 128.76 19.3967V22.4879H127.883V17.2345H127.884Z" fill="#333333"/>
<path d="M137.633 15.9668V17.2346H138.651V17.9575H137.633V21.079C137.633 21.5591 137.834 21.7757 138.283 21.7757C138.384 21.7757 138.586 21.76 138.647 21.7506V22.4881C138.541 22.5132 138.299 22.5289 138.092 22.5289C137.129 22.5289 136.756 22.1345 136.756 21.125V17.9575H135.975V17.2346H136.756V15.9668H137.633Z" fill="#333333"/>
<path d="M140.146 15.1992H141.023V18.0738H141.042C141.335 17.488 141.91 17.1449 142.706 17.1449C143.855 17.1449 144.551 17.9232 144.551 19.0948V22.4894H143.674V19.257C143.674 18.4232 143.255 17.9232 142.433 17.9232C141.561 17.9232 141.022 18.5195 141.022 19.4285V22.4894H140.145V15.1992H140.146Z" fill="#333333"/>
<path d="M150.524 20.9817C150.373 21.9012 149.485 22.578 148.341 22.578C146.838 22.578 145.926 21.5319 145.926 19.8802C145.926 18.2483 146.853 17.1426 148.3 17.1426C149.717 17.1426 150.589 18.173 150.589 19.7641V20.0978H146.828V20.148C146.828 21.1532 147.418 21.8144 148.361 21.8144C149.026 21.8144 149.516 21.4765 149.662 20.9806H150.524V20.9817ZM146.833 19.4105H149.682C149.662 18.5318 149.111 17.9052 148.284 17.9052C147.464 17.9052 146.888 18.537 146.833 19.4105Z" fill="#333333"/>
<path d="M75.9789 28.3281H78.2488L83.1636 41.8864H80.9594L79.7211 38.2219H74.5066L73.2589 41.8864H71.0547L75.9789 28.3281ZM75.0694 36.5304H79.1489L77.1326 30.573H77.0951L75.0694 36.5304Z" fill="#333333"/>
<path d="M85.3711 32.0017H87.3967V33.7026H87.4437C88.0347 32.5279 89.1227 31.8145 90.5292 31.8145C93.0424 31.8145 94.6556 33.7874 94.6556 36.9444V36.9538C94.6556 40.1015 93.033 42.0838 90.5573 42.0838C89.1603 42.0838 88.0253 41.3693 87.4437 40.2239H87.3967V45.176H85.3711V32.0017ZM92.5924 36.9528V36.9434C92.5924 34.8387 91.589 33.552 90.004 33.552C88.4659 33.552 87.3873 34.8857 87.3873 36.9434V36.9528C87.3873 39.001 88.4753 40.3358 90.004 40.3358C91.5984 40.3358 92.5924 39.0387 92.5924 36.9528Z" fill="#333333"/>
<path d="M97.1836 32.0017H99.2092V33.7026H99.2562C99.8472 32.5279 100.935 31.8145 102.342 31.8145C104.855 31.8145 106.468 33.7874 106.468 36.9444V36.9538C106.468 40.1015 104.846 42.0838 102.37 42.0838C100.973 42.0838 99.8378 41.3693 99.2562 40.2239H99.2092V45.176H97.1836V32.0017ZM104.405 36.9528V36.9434C104.405 34.8387 103.401 33.552 101.816 33.552C100.278 33.552 99.1998 34.8857 99.1998 36.9434V36.9528C99.1998 39.001 100.288 40.3358 101.816 40.3358C103.411 40.3358 104.405 39.0387 104.405 36.9528Z" fill="#333333"/>
<path d="M113.49 38.2778L113.48 38.1366H115.525L115.544 38.259C115.732 39.5091 116.978 40.2884 118.789 40.2884C120.599 40.2884 121.743 39.4714 121.743 38.2025V38.1931C121.743 37.1031 121.001 36.511 119.211 36.1166L117.738 35.807C115.084 35.2432 113.8 34.0213 113.8 32.0108V32.0014C113.809 29.6895 115.844 28.1016 118.705 28.1016C121.529 28.1016 123.46 29.6424 123.601 31.9166L123.611 32.0767H121.566L121.557 31.9449C121.369 30.6854 120.281 29.9249 118.678 29.9249C116.999 29.9343 115.93 30.7325 115.93 31.9166V31.926C115.93 32.9407 116.7 33.5611 118.387 33.9272L119.869 34.2368C122.664 34.8289 123.863 35.966 123.863 38.0613V38.0707C123.863 40.5416 121.913 42.1107 118.705 42.1107C115.666 42.1117 113.659 40.665 113.49 38.2778Z" fill="#333333"/>
<path d="M127.037 39.2839V33.6183H125.621V32.0021H127.037V29.4277H129.11V32.0021H130.957V33.6183H129.11V39.1615C129.11 40.1668 129.56 40.467 130.413 40.467C130.629 40.467 130.806 40.4482 130.957 40.4294V41.9985C130.722 42.0361 130.337 42.0832 129.925 42.0832C127.975 42.0832 127.037 41.2568 127.037 39.2839Z" fill="#333333"/>
<path d="M132.912 36.9444V36.9256C132.912 33.7685 134.778 31.8145 137.583 31.8145C140.397 31.8145 142.272 33.7591 142.272 36.9256V36.9444C142.272 40.1297 140.415 42.0838 137.592 42.0838C134.759 42.0838 132.912 40.1203 132.912 36.9444ZM140.199 36.9444V36.9256C140.199 34.7644 139.168 33.5154 137.583 33.5154C136.026 33.5154 134.985 34.7654 134.985 36.9256V36.9444C134.985 39.1339 136.016 40.3829 137.601 40.3829C139.186 40.3829 140.199 39.1245 140.199 36.9444Z" fill="#333333"/>
<path d="M144.801 32.0017H146.826V33.6932H146.873C147.192 32.5373 148.018 31.8145 149.143 31.8145C149.434 31.8145 149.687 31.8615 149.847 31.8898V33.7779C149.687 33.712 149.331 33.665 148.938 33.665C147.635 33.665 146.827 34.5196 146.827 35.9956V41.8872H144.802V32.0017H144.801Z" fill="#333333"/>
<path d="M151.199 36.9821V36.9727C151.199 33.8815 152.982 31.8145 155.748 31.8145C158.513 31.8145 160.211 33.8062 160.211 36.775V37.4612H153.224C153.261 39.3305 154.284 40.4205 155.897 40.4205C157.098 40.4205 157.894 39.8002 158.148 39.0586L158.176 38.9832H160.098L160.08 39.0868C159.761 40.6559 158.242 42.0838 155.85 42.0838C152.953 42.0838 151.199 40.1015 151.199 36.9821ZM153.254 36.0239H158.205C158.036 34.3135 157.08 33.4777 155.758 33.4777C154.444 33.4777 153.432 34.37 153.254 36.0239Z" fill="#333333"/>
<path d="M53.0048 25.6412C51.7414 26.5209 50.8831 27.4038 50.4289 28.2909C49.9747 29.178 49.7471 30.1393 49.7471 31.1729C49.7471 31.9909 49.8818 32.7388 50.1512 33.4178C50.4206 34.0967 50.8017 34.741 51.2945 35.3509C51.7874 35.9608 52.6112 36.5665 53.7671 37.168C53.3202 38.4797 52.6269 39.8177 51.6882 41.1838C50.7484 42.549 49.8975 43.5177 49.1352 44.0888C48.373 44.66 47.6453 44.9456 46.9519 44.9456C46.3975 44.9456 45.6499 44.7688 44.7112 44.4131L44.2727 44.251L43.5564 43.9497C43.0479 43.7959 42.4861 43.7185 41.8701 43.7185C41.2384 43.7185 40.5305 43.8576 39.7442 44.1348L39.1898 44.343L38.4965 44.6213C37.942 44.8378 37.3876 44.9456 36.8332 44.9456C35.6627 44.9456 34.4076 44.1244 33.0669 42.481C31.7273 40.8376 30.7145 39.0708 30.0285 37.1805C29.3425 35.2902 29 33.3811 29 31.4522C29 28.9677 29.7048 26.9007 31.1144 25.2489C32.524 23.5982 34.4368 22.7728 36.8551 22.7728C37.7332 22.7728 38.557 22.935 39.3266 23.2593L39.858 23.4674L40.4125 23.6986C40.9053 23.8995 41.2979 23.9999 41.5903 23.9999C42.0215 23.9999 42.4527 23.9152 42.884 23.7457L43.6232 23.4674L44.1547 23.2593C45.0171 22.935 45.9715 22.7728 47.0198 22.7728C49.5007 22.7718 51.495 23.7279 53.0048 25.6412ZM47.1368 14.6113C47.167 14.9513 47.1827 15.2128 47.1827 15.398C47.1827 16.3551 46.905 17.3426 46.3505 18.3605C45.7961 19.3783 45.0714 20.1702 44.1787 20.733C43.2849 21.2968 42.2992 21.5782 41.2217 21.5782C41.1757 21.2079 41.1528 20.938 41.1528 20.7686C41.1528 19.9505 41.395 19.0906 41.8805 18.1879C42.3661 17.2851 43.0239 16.5173 43.8561 15.8844C44.6882 15.2515 45.6269 14.8509 46.6742 14.6804C46.7671 14.6657 46.9206 14.6427 47.1368 14.6113Z" fill="#333333"/>
</svg>
