<svg width="189" height="60" viewBox="0 0 189 60" fill="none" xmlns="http://www.w3.org/2000/svg">
<rect width="189" height="60" rx="5" fill="white"/>
<path d="M72.6961 19.7967C72.6961 20.6963 72.4299 21.4129 71.8974 21.9464C71.2928 22.5813 70.5045 22.8994 69.5355 22.8994C68.6073 22.8994 67.8179 22.5772 67.1695 21.9328C66.52 21.2884 66.1953 20.4892 66.1953 19.5352C66.1953 18.5811 66.52 17.7819 67.1695 17.1375C67.8179 16.4932 68.6073 16.1699 69.5355 16.1699C69.996 16.1699 70.4366 16.2599 70.8553 16.4398C71.274 16.6197 71.6102 16.8593 71.8608 17.1595L71.2959 17.7265C70.8699 17.217 70.2842 16.9618 69.5355 16.9618C68.8589 16.9618 68.2731 17.2003 67.7793 17.6763C67.2854 18.1533 67.0379 18.7726 67.0379 19.5341C67.0379 20.2957 67.2843 20.9149 67.7793 21.392C68.2731 21.869 68.8579 22.1064 69.5355 22.1064C70.2539 22.1064 70.8522 21.8669 71.3314 21.3878C71.6426 21.075 71.8222 20.6409 71.8702 20.0833H69.5355V19.3092H72.6512C72.6815 19.4797 72.6961 19.6408 72.6961 19.7967Z" fill="#333333"/>
<path d="M77.6345 17.1072H74.7068V19.1492H77.3474V19.9233H74.7068V21.9652H77.6345V22.7571H73.8809V16.3164H77.6345V17.1072Z" fill="#333333"/>
<path d="M81.119 22.7562H80.292V17.1063H78.4961V16.3145H82.9138V17.1063H81.1179V22.7562H81.119Z" fill="#333333"/>
<path d="M86.1094 22.7552V16.3145H86.9353V22.7552H86.1094Z" fill="#333333"/>
<path d="M90.6014 22.7562H89.7744V17.1063H87.9785V16.3145H92.3963V17.1063H90.6004V22.7562H90.6014Z" fill="#333333"/>
<path d="M100.759 21.9253C100.127 22.576 99.3411 22.9013 98.4013 22.9013C97.4616 22.9013 96.6754 22.576 96.0447 21.9253C95.413 21.2747 95.0977 20.4786 95.0977 19.5371C95.0977 18.5956 95.413 17.7996 96.0447 17.1489C96.6754 16.4983 97.4616 16.1719 98.4013 16.1719C99.3358 16.1719 100.12 16.4993 100.755 17.1531C101.389 17.8069 101.706 18.6009 101.706 19.5371C101.706 20.4786 101.391 21.2747 100.759 21.9253ZM96.6555 21.3855C97.1317 21.8678 97.7132 22.1094 98.4024 22.1094C99.0915 22.1094 99.6741 21.8688 100.149 21.3855C100.625 20.9033 100.863 20.2861 100.863 19.5371C100.863 18.7881 100.624 18.1709 100.149 17.6887C99.6741 17.2064 99.0915 16.9648 98.4024 16.9648C97.7132 16.9648 97.1317 17.2054 96.6555 17.6887C96.1804 18.1709 95.9424 18.7881 95.9424 19.5371C95.9424 20.2861 96.1804 20.9033 96.6555 21.3855Z" fill="#333333"/>
<path d="M102.867 22.7552V16.3145H103.873L106.997 21.3252H107.032L106.997 20.0835V16.3145H107.824V22.7552H106.961L103.692 17.5018H103.657L103.692 18.7435V22.7552H102.867Z" fill="#333333"/>
<path d="M95.0834 31.9707C93.8115 31.9707 92.6578 32.4507 91.8262 33.2602C91.0072 34.0575 90.501 35.174 90.501 36.4666C90.501 37.8334 91.0752 39.0106 91.9884 39.8171C92.8042 40.5381 93.892 40.9625 95.0834 40.9625C96.2036 40.9625 97.2319 40.5865 98.0299 39.9428C99.0299 39.1353 99.6669 37.9065 99.6669 36.4666C99.6669 35.4006 99.3217 34.454 98.7422 33.7083C97.9044 32.6309 96.575 31.9707 95.0834 31.9707ZM95.0834 39.1909C93.6996 39.1909 92.5072 38.0672 92.5072 36.4666C92.5072 34.8485 93.7006 33.7423 95.0834 33.7423C96.4672 33.7423 97.6597 34.8495 97.6597 36.4666C97.6607 38.0672 96.4672 39.1909 95.0834 39.1909ZM85.087 31.9707C84.1404 31.9707 83.2586 32.2364 82.5275 32.7061C81.3079 33.4889 80.5046 34.8382 80.5046 36.4666C80.5046 37.7613 81.0192 38.885 81.8486 39.6853C82.6792 40.4856 83.8245 40.9625 85.087 40.9625C86.134 40.9625 87.1005 40.6349 87.8735 40.0664C88.9644 39.264 89.6694 37.9827 89.6694 36.4676C89.6694 35.6035 89.4435 34.8186 89.0492 34.1543C88.2532 32.8153 86.7742 31.9707 85.087 31.9707ZM85.087 39.1909C83.7032 39.1909 82.5108 38.0672 82.5108 36.4666C82.5108 34.8485 83.7042 33.7423 85.087 33.7423C86.4708 33.7423 87.6632 34.8495 87.6632 36.4666C87.6632 38.0672 86.4698 39.1909 85.087 39.1909ZM73.1942 33.3509V35.2584H75.622H77.829C77.6909 36.3317 77.3279 37.1144 76.7736 37.6593C76.0989 38.3236 75.0446 39.056 73.1942 39.056C70.3408 39.056 68.1098 36.791 68.1098 33.9812C68.1098 31.1714 70.3408 28.9065 73.1942 28.9065C74.7329 28.9065 75.8573 29.5029 76.6878 30.2692L78.0539 28.924C76.8949 27.8343 75.3563 27 73.1942 27C71.8669 27 70.6107 27.3615 69.5312 27.9898C67.433 29.2114 66 31.4403 66 33.9812C66 36.6025 67.524 38.8922 69.731 40.0859C70.7644 40.6452 71.9474 40.9635 73.1932 40.9635C75.3029 40.9635 76.8939 40.2827 78.1386 39.0055C79.4178 37.7458 79.8163 35.9742 79.8163 34.5436C79.8163 34.1007 79.7818 33.6918 79.7128 33.3519H76.3698H73.1942V33.3509ZM121.829 34.832C121.448 33.8278 120.29 31.9717 117.921 31.9717C116.91 31.9717 115.971 32.3096 115.23 32.907C114.249 33.698 113.615 34.9443 113.615 36.4676C113.615 38.988 115.552 40.9635 118.146 40.9635C120.238 40.9635 121.449 39.7038 121.95 38.9715L120.394 37.9498C119.875 38.6986 119.166 39.193 118.146 39.193C117.125 39.193 116.399 38.7336 115.933 37.8303L122.037 35.3439L121.829 34.832ZM115.603 36.3306C115.551 34.5941 116.969 33.7083 117.989 33.7083C118.785 33.7083 119.459 34.0997 119.684 34.6621L117.552 35.5334L115.603 36.3306ZM110.64 40.6895H112.646V27.4759H110.64V40.6895ZM107.355 32.976H107.286C106.836 32.4476 105.972 31.9717 104.882 31.9717C103.827 31.9717 102.812 32.394 102.026 33.0996C101.111 33.9194 100.507 35.1204 100.507 36.4851C100.507 38.06 101.324 39.4165 102.494 40.2116C103.196 40.6885 104.025 40.9645 104.881 40.9645C105.971 40.9645 106.835 40.4876 107.285 39.9428H107.354V40.5896C107.354 42.3097 106.42 43.2295 104.916 43.2295C103.688 43.2295 102.927 42.3612 102.615 41.6289L100.869 42.3437C101.37 43.5354 102.701 45 104.916 45C107.268 45 109.256 43.6373 109.256 40.3167V32.2447H107.354V32.976H107.355ZM105.055 39.1909C103.671 39.1909 102.513 38.0497 102.513 36.4831C102.513 34.9 103.672 33.7412 105.055 33.7412C106.421 33.7412 107.493 34.8989 107.493 36.4831C107.493 38.0507 106.421 39.1909 105.055 39.1909ZM131.225 27.4759H126.426V40.6895H128.429V35.6828H131.226C132.502 35.6828 133.767 35.1595 134.611 34.2356C135.234 33.5528 135.629 32.6505 135.629 31.5793C135.629 30.5236 135.246 29.6316 134.637 28.9518C133.793 28.0104 132.516 27.4759 131.225 27.4759ZM131.277 33.8442H128.429V29.3144H131.277C132.775 29.3144 133.626 30.5349 133.626 31.5793C133.625 32.6041 132.774 33.8442 131.277 33.8442ZM143.655 31.947C142.206 31.947 140.704 32.5763 140.081 33.9699L141.859 34.7012C142.239 33.9699 142.947 33.732 143.689 33.732C144.724 33.732 145.778 34.3438 145.796 35.4314V35.5674C145.433 35.3635 144.656 35.0576 143.707 35.0576C142.882 35.0576 142.052 35.2491 141.373 35.622C140.474 36.1164 139.84 36.928 139.84 38.0322C139.84 38.9911 140.302 39.7646 141.006 40.2724C141.6 40.7008 142.366 40.9388 143.172 40.9388C144.518 40.9388 145.261 40.3434 145.728 39.6472H145.797V40.6669H147.731V37.5584V35.6014C147.731 34.2089 147.104 33.182 146.115 32.5763C145.436 32.1633 144.588 31.947 143.655 31.947ZM143.414 39.1888C142.758 39.1888 141.843 38.8654 141.843 38.0672C141.843 37.0475 142.982 36.6561 143.966 36.6561C144.847 36.6561 145.261 36.8436 145.797 37.098C145.641 38.3216 144.571 39.1888 143.414 39.1888ZM154.773 32.2354L153.822 34.6075L152.477 37.9642H152.408L150.025 32.2354H147.868L149.591 36.0978L151.442 40.2425L149.404 44.6962H151.493L155.4 35.8558L157 32.2344H154.773V32.2354ZM136.732 40.6895H138.735V27.4759H136.732V40.6895Z" fill="#333333"/>
<path d="M51 25.0727L35.2495 15.2533C34.4439 14.7507 33.4916 15.0383 33 15.7439L46.3399 30L51 25.0727Z" fill="url(#paint0_linear_2724_52593)"/>
<path d="M32 42.974C32 43.3658 32.1174 43.7154 32.312 44L46 30.0601L32.3405 16C32.129 16.2922 32 16.6559 32 17.0661V42.974Z" fill="url(#paint1_linear_2724_52593)"/>
<path d="M50.6549 35L56.1398 31.574C57.2867 30.8568 57.2867 29.0918 56.1398 28.3747L50.7357 25L46 30.0168L50.6549 35Z" fill="url(#paint2_linear_2724_52593)"/>
<path d="M33 44.2111C33.4578 44.9503 34.3802 45.2603 35.1579 44.7451L50 34.9231L45.6608 30L33 44.2111Z" fill="url(#paint3_linear_2724_52593)"/>
<defs>
<linearGradient id="paint0_linear_2724_52593" x1="11.6588" y1="-4.77177" x2="45.7136" y2="21.561" gradientUnits="userSpaceOnUse">
<stop stop-color="#32A071"/>
<stop offset="0.0685" stop-color="#2DA771"/>
<stop offset="0.4762" stop-color="#15CF74"/>
<stop offset="0.8009" stop-color="#06E775"/>
<stop offset="1" stop-color="#00F076"/>
</linearGradient>
<linearGradient id="paint1_linear_2724_52593" x1="55.5416" y1="29.8593" x2="30.7023" y2="30.0025" gradientUnits="userSpaceOnUse">
<stop stop-color="#00A0FF"/>
<stop offset="0.00657445" stop-color="#00A1FF"/>
<stop offset="0.2601" stop-color="#00BEFF"/>
<stop offset="0.5122" stop-color="#00D2FF"/>
<stop offset="0.7604" stop-color="#00DFFF"/>
<stop offset="1" stop-color="#00E3FF"/>
</linearGradient>
<linearGradient id="paint2_linear_2724_52593" x1="58.9204" y1="30.6869" x2="36.6573" y2="29.0466" gradientUnits="userSpaceOnUse">
<stop stop-color="#FFE000"/>
<stop offset="0.4087" stop-color="#FFBD00"/>
<stop offset="0.7754" stop-color="#FFA500"/>
<stop offset="1" stop-color="#FF9C00"/>
</linearGradient>
<linearGradient id="paint3_linear_2724_52593" x1="55.0047" y1="27.0903" x2="12.2903" y2="52.2294" gradientUnits="userSpaceOnUse">
<stop stop-color="#FF3A44"/>
<stop offset="1" stop-color="#C31162"/>
</linearGradient>
</defs>
</svg>
