<svg xmlns="http://www.w3.org/2000/svg" version="1.1" xmlns:xlink="http://www.w3.org/1999/xlink" width="1500" height="97" viewBox="0 0 1500 97"><svg xml:space="preserve" width="1500" height="97" data-version="2" data-id="lg_rxkBsU40IT6Bv74zM1" viewBox="0 0 560 97" x="0" y="0"><rect width="100%" height="100%" fill="transparent"></rect><path d="M31.235 95.81q-7.03 0-12.95-3.61-5.87-3.61-9.38-9.64-3.52-6.03-3.52-13.24v-6.06q0-.71.65-.71h14.82q.52 0 .52.71v6.06q0 4.31 2.9 7.44 2.9 3.13 6.96 3.13 4.13 0 7.03-3.19 2.9-3.2 2.9-7.38 0-4.84-6.32-8.45-1.03-.64-2.68-1.58-1.64-.93-3.89-2.16-2.26-1.22-4.39-2.41-2.12-1.2-4.12-2.29-7.22-4.26-10.73-10.67-3.52-6.41-3.52-14.4 0-7.35 3.61-13.28 3.61-5.87 9.45-9.31 5.83-3.45 12.66-3.45 7.03 0 12.89 3.48 5.87 3.54 9.38 9.41 3.51 5.86 3.51 13.15v10.82q0 .52-.51.52h-14.83q-.51 0-.51-.52l-.13-10.82q0-4.64-2.9-7.54-2.9-2.91-6.9-2.91-4.06 0-6.96 3.1-2.9 3.09-2.9 7.35 0 4.31 1.84 7.22 1.83 2.9 6.73 5.54.52.26 2.39 1.29t4.15 2.29q2.29 1.25 4.16 2.25t2.26 1.19q6.57 3.68 10.41 9.03 3.83 5.35 3.83 13.15 0 7.54-3.48 13.53-3.54 5.99-9.41 9.48-5.87 3.48-13.02 3.48"></path><path d="M82.145 95.81q-7.15 0-13.08-3.61-5.87-3.61-9.31-9.7-3.45-6.09-3.45-13.57l.13-41.19q0-7.34 3.35-13.27 3.35-6 9.25-9.64 5.89-3.64 13.11-3.64 7.35 0 13.09 3.54 5.8 3.55 9.25 9.57 3.44 6.03 3.44 13.44v6.06q0 .52-.51.52h-14.82q-.52 0-.52-.52v-6.06q0-4.38-2.84-7.54-2.83-3.16-7.09-3.16-4.7 0-7.22 3.23-2.51 3.22-2.51 7.47v41.19q0 4.83 2.84 7.89 2.83 3.07 6.89 3.07 4.26 0 7.09-3.39 2.84-3.38 2.84-7.57v-6.12q0-.52.52-.52h14.95q.51 0 .51.52v6.12q0 7.41-3.48 13.53-3.54 6.06-9.34 9.7-5.8 3.65-13.09 3.65m42.47-1.29h-14.95q-.52 0-.52-.65l.26-90.68q0-.52.52-.52h26.68q7.16 0 13.15 3.48t9.57 9.35q3.58 5.86 3.58 13.27 0 4.84-1.48 8.77-1.49 3.93-3.45 6.64-1.97 2.71-3.58 3.99 7.16 7.93 7.16 18.63l.12 27.07q0 .65-.64.65h-14.95q-.52 0-.52-.39V66.8q0-4.77-3.35-8.25-3.35-3.48-8.25-3.48h-8.7l-.13 38.8q0 .65-.52.65m11.99-76.06h-11.34v20.76h11.34q4.06 0 7.25-3.03 3.19-3.03 3.19-7.42 0-4.19-3.09-7.25-3.09-3.06-7.35-3.06m70.9 76.06h-42.67q-.52 0-.52-.65l.13-90.68q0-.52.52-.52h42.41q.51 0 .51.65v14.76q0 .51-.51.51h-27.07v20.63h27.07q.51 0 .51.51l.13 14.95q0 .52-.51.52h-27.2v23.07h27.2q.51 0 .51.65V94q0 .52-.51.52m46.98 0h-42.67q-.52 0-.52-.65l.13-90.68q0-.52.52-.52h42.41q.51 0 .51.65v14.76q0 .51-.51.51h-27.07v20.63h27.07q.51 0 .51.51l.13 14.95q0 .52-.51.52h-27.2v23.07h27.2q.51 0 .51.65V94q0 .52-.51.52m18.17 0h-13.21q-1.04 0-1.04-.91l-.12-89.91q0-1.03 1.03-1.03h11.92l22.3 52.01-.64-50.98q0-1.03 1.16-1.03h13.08q.77 0 .77 1.03l.13 90.04q0 .78-.64.78h-11.6l-22.88-48.6.96 47.57q0 1.03-1.22 1.03"></path><path d="M341.875 94.52h-15.99q-.58 0-.64-.65l-18.24-90.68q-.13-.52.51-.52h14.96q.51 0 .64.52l10.83 60.45 10.57-60.45q.13-.52.64-.52h14.76q.71 0 .52.52l-17.92 90.68q-.06.65-.64.65"></path><path d="M402.905 94.52h-42.67q-.51 0-.51-.65l.12-90.68q0-.52.52-.52h42.41q.52 0 .52.65v14.76q0 .51-.52.51h-27.07v20.63h27.07q.52 0 .52.51l.12 14.95q0 .52-.51.52h-27.2v23.07h27.2q.51 0 .51.65V94q0 .52-.51.52m19.27 0h-14.96q-.51 0-.51-.65l.25-90.68q0-.52.52-.52h26.68q7.16 0 13.15 3.48 6 3.48 9.57 9.35 3.58 5.86 3.58 13.27 0 4.84-1.48 8.77-1.48 3.93-3.45 6.64-1.97 2.71-3.58 3.99 7.16 7.93 7.16 18.63l.13 27.07q0 .65-.65.65h-14.95q-.52 0-.52-.39V66.8q0-4.77-3.35-8.25-3.35-3.48-8.25-3.48h-8.7l-.13 38.8q0 .65-.51.65m11.98-76.06h-11.34v20.76h11.34q4.06 0 7.26-3.03 3.19-3.03 3.19-7.42 0-4.19-3.1-7.25-3.09-3.06-7.35-3.06"></path><path d="M484.295 95.81q-7.02 0-12.95-3.61-5.87-3.61-9.38-9.64-3.51-6.03-3.51-13.24v-6.06q0-.71.64-.71h14.83q.51 0 .51.71v6.06q0 4.31 2.9 7.44 2.9 3.13 6.96 3.13 4.13 0 7.03-3.19 2.9-3.2 2.9-7.38 0-4.84-6.32-8.45-1.03-.64-2.67-1.58-1.64-.93-3.9-2.16-2.26-1.22-4.38-2.41-2.13-1.2-4.13-2.29-7.22-4.26-10.73-10.67-3.51-6.41-3.51-14.4 0-7.35 3.61-13.28 3.61-5.87 9.44-9.31 5.83-3.45 12.66-3.45 7.03 0 12.89 3.48 5.87 3.54 9.38 9.41 3.52 5.86 3.52 13.15v10.82q0 .52-.52.52h-14.82q-.52 0-.52-.52l-.13-10.82q0-4.64-2.9-7.54-2.9-2.91-6.9-2.91-4.06 0-6.96 3.1-2.9 3.09-2.9 7.35 0 4.31 1.84 7.22 1.84 2.9 6.74 5.54.51.26 2.38 1.29l4.16 2.29q2.29 1.25 4.15 2.25 1.87 1 2.26 1.19 6.57 3.68 10.41 9.03 3.83 5.35 3.83 13.15 0 7.54-3.48 13.53-3.54 5.99-9.41 9.48-5.86 3.48-13.02 3.48m69.8-1.29h-42.67q-.51 0-.51-.65l.13-90.68q0-.52.51-.52h42.41q.52 0 .52.65v14.76q0 .51-.52.51h-27.07v20.63h27.07q.52 0 .52.51l.13 14.95q0 .52-.52.52h-27.2v23.07h27.2q.52 0 .52.65V94q0 .52-.52.52"></path></svg></svg>